<svg width="32" height="32" viewBox="0 0 32 32" fill="none" xmlns="http://www.w3.org/2000/svg">
<path d="M15.625 18.75C24.2542 18.75 31.25 22.0146 31.25 26.0417V31.25H0V26.0417C0 22.0146 6.99583 18.75 15.625 18.75ZM29.1667 26.0417C29.1667 23.1667 23.1042 20.8333 15.625 20.8333C8.14583 20.8333 2.08333 23.1667 2.08333 26.0417V29.1667H29.1667V26.0417ZM15.625 0C17.5589 0 19.4135 0.768227 20.781 2.13568C22.1484 3.50313 22.9167 5.3578 22.9167 7.29167C22.9167 9.22554 22.1484 11.0802 20.781 12.4477C19.4135 13.8151 17.5589 14.5833 15.625 14.5833C13.6911 14.5833 11.8365 13.8151 10.469 12.4477C9.10156 11.0802 8.33333 9.22554 8.33333 7.29167C8.33333 5.3578 9.10156 3.50313 10.469 2.13568C11.8365 0.768227 13.6911 0 15.625 0ZM15.625 2.08333C14.2437 2.08333 12.9189 2.63207 11.9422 3.60882C10.9654 4.58557 10.4167 5.91033 10.4167 7.29167C10.4167 8.673 10.9654 9.99776 11.9422 10.9745C12.9189 11.9513 14.2437 12.5 15.625 12.5C17.0063 12.5 18.3311 11.9513 19.3078 10.9745C20.2846 9.99776 20.8333 8.673 20.8333 7.29167C20.8333 5.91033 20.2846 4.58557 19.3078 3.60882C18.3311 2.63207 17.0063 2.08333 15.625 2.08333V2.08333Z" fill="black"/>
</svg>
