<svg width="54" height="60" viewBox="0 0 54 60" fill="none" xmlns="http://www.w3.org/2000/svg">
<path d="M27 0C10.791 0 0 11.123 0 28.607C0 52.065 27 60 27 60C27 60 54 52.065 54 28.607C54 11.123 43.207 0 27 0ZM39.143 50.996C34.039 54.739 28.848 56.73 27 57.369C22.914 55.954 2.5 47.909 2.5 28.607C2.5 12.748 12.117 2.5 27 2.5C41.883 2.5 51.5 12.748 51.5 28.607C51.5 37.448 47.342 44.981 39.143 50.996V50.996Z" fill="black"/>
<path d="M37.303 43.452C36.992 43.452 36.641 43.628 36.002 43.946C34.475 44.711 31.631 46.133 26.998 46.133C22.369 46.133 19.523 44.711 17.996 43.946C17.359 43.628 17.008 43.452 16.697 43.452C16.363 43.452 16.025 43.681 16.025 44.195C16.025 46.72 21.359 49.108 26.998 49.108C32.641 49.108 37.973 46.72 37.973 44.195C37.973 43.682 37.637 43.452 37.303 43.452" fill="black"/>
<path d="M21.084 35.71C22.717 34.103 22.772 31.351 21.514 28.564L21.53 28.578C20.917 26.949 19.868 25.53 18.682 24.286C17.4823 23.0369 16.1064 21.9699 14.598 21.119C13.0978 20.2705 11.4808 19.6478 9.79897 19.271C8.13297 18.896 6.41198 18.769 4.72498 19C6.26698 19.576 7.74798 20.102 9.18698 20.699C8.33998 20.887 7.58997 21.261 6.99697 21.845C4.51497 24.288 5.65898 29.369 9.54998 33.199C13.439 37.025 18.605 38.15 21.084 35.71V35.71ZM13.201 26.745C11.211 25.498 10.125 23.659 10.781 22.639C11.443 21.618 13.595 21.802 15.588 23.048C17.584 24.295 18.666 26.134 18.006 27.154C17.35 28.176 15.199 27.992 13.201 26.745" fill="black"/>
<path d="M44.81 20.699C46.25 20.102 47.731 19.577 49.272 19C47.584 18.77 45.868 18.895 44.2 19.271C42.53 19.648 40.901 20.263 39.401 21.118C37.8929 21.9681 36.5176 23.0348 35.319 24.284C34.13 25.53 33.083 26.949 32.469 28.577L32.484 28.564C31.226 31.35 31.28 34.103 32.913 35.71C35.393 38.152 40.559 37.027 44.448 33.198C48.339 29.37 49.481 24.288 47.003 21.844C46.408 21.261 45.657 20.886 44.81 20.699V20.699ZM40.793 26.745C38.799 27.991 36.647 28.175 35.986 27.152C35.33 26.132 36.412 24.294 38.406 23.048C40.402 21.801 42.552 21.617 43.215 22.64C43.871 23.66 42.787 25.497 40.793 26.745Z" fill="black"/>
</svg>
