<svg width="60" height="60" viewBox="0 0 60 60" fill="none" xmlns="http://www.w3.org/2000/svg">
<path d="M55.931 18.028C57.663 16.276 58.658 13.951 58.658 11.518C58.658 6.262 54.137 1.986 48.58 1.986C44.121 1.986 40.248 4.804 38.96 8.693C38.5184 8.63333 38.076 8.57966 37.633 8.532C35.704 4.708 31.875 2.39 31.698 2.285L27.867 0L28.415 2.887C27.8427 2.63545 27.249 2.43565 26.641 2.29L20.789 0.97L23.976 4.635H23.903C23.591 4.635 23.416 4.653 23.416 4.653L18.83 5.085C17.8642 4.10089 16.7114 3.31978 15.4394 2.78758C14.1674 2.25539 12.8018 1.98286 11.423 1.986C5.866 1.986 1.345 6.262 1.345 11.518C1.345 13.951 2.339 16.275 4.07 18.027C1.334 22.285 0 28.06 0 35.603C0 52.844 19.539 60 30 60C40.461 60 60 52.844 60 35.603C60 28.06 58.666 22.286 55.931 18.028V18.028ZM22.381 8.121C22.524 8.225 22.66 8.349 22.791 8.49C22.189 8.55 21.606 8.617 21.039 8.693C20.7418 7.8 20.3105 6.95738 19.76 6.194L22.381 8.121V8.121ZM30 58.066C20.873 58.066 2 51.885 2 35.602C2 27.325 3.64 21.6 6.733 17.697C4.685 16.319 3.345 14.068 3.345 11.518C3.345 7.322 6.962 3.92 11.423 3.92C15.662 3.92 19.132 6.993 19.467 10.9C21.449 10.537 23.592 10.317 25.875 10.201C25.431 8.743 24.722 7.406 23.587 6.577C23.587 6.577 23.701 6.568 23.903 6.568C24.441 6.568 25.607 6.634 26.929 7.124C26.929 7.124 27.197 5.333 26.187 4.172C26.187 4.172 28.812 4.764 30.13 6.47C30.13 6.47 30.915 5.342 30.648 3.93C30.648 3.93 34.818 6.418 36.253 10.341C37.749 10.47 39.177 10.653 40.531 10.901C40.866 6.994 44.339 3.921 48.579 3.921C53.038 3.921 56.657 7.322 56.657 11.519C56.657 14.07 55.315 16.321 53.266 17.699C56.36 21.6 58 27.326 58 35.603C58 51.886 39.128 58.066 30 58.066Z" fill="black"/>
<path d="M8.925 15.436C10.956 13.713 13.412 12.492 16.264 11.659C16.265 11.611 16.279 11.567 16.279 11.519C16.279 8.985 14.106 6.931 11.423 6.931C8.739 6.931 6.565 8.985 6.565 11.519C6.564 13.188 7.516 14.633 8.925 15.436" fill="black"/>
<path d="M51.075 15.437C52.483 14.633 53.435 13.188 53.435 11.519C53.435 8.985 51.26 6.931 48.579 6.931C45.893 6.931 43.722 8.985 43.722 11.519C43.722 11.567 43.735 11.611 43.736 11.659C46.589 12.492 49.044 13.713 51.075 15.437Z" fill="black"/>
<path d="M30.038 52.105C27.743 52.105 25.882 52.652 25.882 53.325C25.882 53.417 25.915 53.59 25.981 53.59H34.077C34.154 53.59 34.195 53.422 34.195 53.325C34.194 52.653 32.335 52.105 30.038 52.105Z" fill="black"/>
<path d="M21.374 43.493C21.374 46.248 28.239 48.691 30 48.691C31.761 48.691 38.626 46.248 38.626 43.493C38.626 40.033 34.765 39.366 30 39.366C25.239 39.366 21.374 40.033 21.374 43.493" fill="black"/>
<path d="M55.323 29.613C51.093 29.676 46.88 29.85 42.658 29.937C38.438 30.031 34.214 30.076 29.995 30.068C25.7734 30.078 21.552 30.025 17.332 29.909C15.2224 29.849 13.1133 29.772 11.005 29.678C8.89663 29.5913 6.78919 29.4837 4.68298 29.355C4.63998 29.351 4.59398 29.381 4.58498 29.423C4.58157 29.4347 4.58068 29.447 4.58239 29.4591C4.58409 29.4712 4.58835 29.4828 4.59488 29.4931C4.60141 29.5034 4.61005 29.5122 4.62024 29.5189C4.63043 29.5256 4.64193 29.5301 4.65398 29.532L4.66898 29.535C7.02698 30.061 9.40298 30.451 11.788 30.765C11.6574 30.9574 11.5919 31.1866 11.601 31.419C11.601 32.882 13.123 34.069 14.999 34.069C16.863 34.069 18.372 32.896 18.392 31.447C20.801 31.631 23.214 31.749 25.628 31.818C21.445 33.343 16.998 36.958 16.998 43.244C16.998 54.749 22.215 57.106 30.048 57.106C37.879 57.106 43.095 54.749 43.095 43.244C43.095 36.963 38.657 33.349 34.478 31.822C36.8582 31.7573 39.2368 31.6406 41.612 31.472C41.65 32.91 43.15 34.069 45.004 34.069C46.877 34.069 48.4 32.881 48.4 31.419C48.4 31.171 48.341 30.993 48.259 30.841C48.515 30.812 48.773 30.787 49.029 30.755C50.078 30.616 51.133 30.478 52.179 30.312L53.753 30.064L55.325 29.796L55.345 29.792C55.3664 29.7883 55.3858 29.7773 55.4001 29.7609C55.4143 29.7445 55.4224 29.7237 55.423 29.702C55.421 29.653 55.377 29.613 55.323 29.613V29.613ZM41.595 43.245C41.595 53.626 37.361 55.657 30.048 55.657C22.733 55.657 18.498 53.626 18.498 43.245C18.498 35.58 26.02 32.399 30.048 32.399C34.073 32.399 41.595 35.58 41.595 43.245" fill="black"/>
</svg>
