<svg width="40" height="60" viewBox="0 0 40 60" fill="none" xmlns="http://www.w3.org/2000/svg">
<path d="M29.9467 4.44843L25.7078 21.7964L22.1868 4.20844C20.9478 -2.62457 10.7958 -0.495565 12.2098 6.00443L14.7478 18.9154C12.1688 18.0134 7.80086 20.2044 8.16286 24.2374C6.63787 21.9794 -0.54409 22.6324 0.0329066 29.2464C0.0329066 29.2464 0.620904 33.7534 0.698903 35.2644C0.837902 37.9754 0.640903 42.9604 1.0729 46.1174C2.35089 55.4614 10.8768 59.8194 18.7588 59.9944C18.9238 59.9984 19.0898 60.0004 19.2568 60.0004C27.3688 60.0004 36.1887 55.6234 38.0037 45.6994C39.3167 38.5074 36.8887 35.2684 33.5307 32.8034L39.8377 6.64343C41.3777 0.547434 31.4917 -1.90057 29.9467 4.44843V4.44843ZM13.6448 5.12344C12.9368 1.53444 18.7488 0.867435 19.4448 4.51144L24.0698 28.7334C23.2008 28.8434 21.5148 29.5944 19.4508 29.7054L18.7108 23.1834C18.5578 21.8034 17.4288 20.1744 16.4518 19.4014L13.6448 5.12344V5.12344ZM14.0378 20.7684C15.5798 21.5064 16.1608 22.0124 16.8508 29.7254C14.8298 29.7254 13.1818 31.5884 13.1818 33.8014C11.9128 33.8014 11.1638 32.4994 10.7488 31.1324C10.1418 29.1394 9.68285 26.1504 9.47785 24.4994C9.06686 21.1614 12.4408 20.0034 14.0378 20.7684V20.7684ZM7.78286 27.7974C8.04686 28.7904 9.39485 33.8664 8.97186 36.1254C8.25886 39.9194 2.45789 39.1014 2.0159 35.1934L1.2669 28.7884C0.840902 24.9504 6.52287 23.0484 7.78286 27.7974V27.7974ZM33.4897 49.3084C28.5427 57.5624 18.2248 59.0374 11.2898 56.0864C5.31388 53.5434 1.0169 49.4334 1.9839 38.3334C3.13889 40.1054 9.85185 41.8474 11.4568 35.1874C12.0908 35.5804 12.7868 35.8034 13.4848 35.8704C14.5048 38.5514 17.7818 39.3784 18.8208 39.5814C16.6558 40.8124 14.9148 43.2084 15.9738 47.1144C15.8888 40.6634 22.7378 38.8214 23.7288 39.1834C24.8768 39.6044 26.3438 41.6694 26.6938 42.7794C26.8308 43.2174 26.8598 44.6124 26.8598 44.6124C26.8598 44.6124 27.2628 43.2124 27.1978 42.7404C26.9968 41.2924 25.1368 38.5224 23.7718 37.9844C22.1488 37.3474 18.0018 37.7504 16.4508 36.9544C13.3448 35.3604 14.3918 30.7054 16.9468 30.9804C19.8398 31.2914 21.4748 30.7884 22.9048 30.3834C24.5588 29.9154 26.0088 29.4804 27.4638 30.5714C28.9817 31.7084 32.2817 34.1464 33.2767 35.1304C36.5367 38.3544 35.7837 45.4794 33.4897 49.3084V49.3084ZM36.9547 7.08344L31.2717 31.2934C29.1027 29.9514 28.0627 28.9054 27.1188 28.8434L26.3188 24.9544L31.3977 4.60043C32.2317 1.18343 37.9867 3.04643 36.9547 7.08344" fill="black"/>
</svg>
