<svg width="52" height="60" viewBox="0 0 52 60" fill="none" xmlns="http://www.w3.org/2000/svg">
<path d="M51.5986 26.635C50.6536 24.732 48.8227 23.64 46.5777 23.64C39.6437 23.64 35.1097 31.423 35.1097 31.423V9.14204C35.1097 3.50205 29.4727 1.62105 26.5557 3.75305C25.2627 -1.05695 17.6338 -1.18295 16.2368 3.02705C13.8828 1.28605 8.37982 2.41505 7.73782 7.49704C7.19499 7.32749 6.62952 7.24151 6.06083 7.24204C2.92084 7.24204 0.461853 9.79104 0.461853 13.044C0.464853 13.232 0.840851 28.344 0.395853 33.417C-0.0831446 38.884 -0.623143 45.268 2.02985 51.422C4.27684 56.634 10.3078 60 17.3948 60C26.1527 60 33.9617 55.102 38.2837 46.895C40.5487 42.593 43.9967 38.99 46.7657 36.095C50.4086 32.289 53.0396 29.54 51.5986 26.635V26.635ZM1.91685 33.572C2.25785 28.457 2.16785 18.833 2.16785 13.706C2.16785 8.93204 8.03882 8.76904 8.03882 10.777L8.37782 27.465L9.78281 29.388V8.31104C9.78281 5.00505 14.3238 3.36205 16.1468 5.42505V27.498L17.7058 29.388V5.17405C17.7058 0.824049 24.9208 0.695049 24.9208 4.75505V27.498L26.4417 29.388V5.96904C27.4427 4.54705 32.6147 5.17504 32.6147 8.81504V32.736C26.0227 32.5 16.1378 37.55 17.4558 47.81C18.3318 38.15 27.5797 34.948 32.5987 34.948C34.3447 34.948 35.4707 33.814 35.4707 33.814C35.4657 33.812 35.4617 33.81 35.4567 33.81C36.4247 33.053 40.6907 25.501 45.7277 25.501C47.2087 25.501 49.8966 25.965 48.5207 29.474C46.3567 34.995 40.0997 36.291 34.9727 46.119C29.2067 57.17 13.7728 60.834 6.43883 54.172C0.707852 48.963 1.63185 37.847 1.91685 33.572" fill="black"/>
</svg>
