<svg width="44" height="44" viewBox="0 0 44 44" fill="none" xmlns="http://www.w3.org/2000/svg">
<path fill-rule="evenodd" clip-rule="evenodd" d="M43.3688 8.24687C43.3688 10.2312 41.9656 11.8469 40.2312 11.8469H34.3844C32.6563 11.8469 31.25 10.2281 31.25 8.24687V3.59375C31.25 1.60938 32.6563 0 34.3844 0H40.2312C41.9656 0 43.3688 1.6125 43.3688 3.59375V8.24687V8.24687Z" fill="black"/>
<path fill-rule="evenodd" clip-rule="evenodd" d="M27.7438 8.24687C27.7438 10.2312 26.3406 11.8469 24.6062 11.8469H18.7594C17.0312 11.8469 15.625 10.2281 15.625 8.24687V3.59375C15.625 1.60938 17.0312 0 18.7594 0H24.6062C26.3406 0 27.7438 1.6125 27.7438 3.59375V8.24687V8.24687Z" fill="black"/>
<path fill-rule="evenodd" clip-rule="evenodd" d="M12.1187 8.24687C12.1187 10.2312 10.7156 11.8469 8.98125 11.8469H3.13438C1.40625 11.8469 0 10.2281 0 8.24687V3.59375C0 1.60938 1.40625 0 3.13438 0H8.98125C10.7156 0 12.1187 1.6125 12.1187 3.59375V8.24687V8.24687Z" fill="black"/>
<path fill-rule="evenodd" clip-rule="evenodd" d="M43.3688 23.8719C43.3688 25.8562 41.9656 27.4719 40.2312 27.4719H34.3844C32.6563 27.4719 31.25 25.8531 31.25 23.8719V19.2188C31.25 17.2344 32.6563 15.625 34.3844 15.625H40.2312C41.9656 15.625 43.3688 17.2375 43.3688 19.2188V23.8719V23.8719Z" fill="black"/>
<path fill-rule="evenodd" clip-rule="evenodd" d="M27.7438 23.8719C27.7438 25.8562 26.3406 27.4719 24.6062 27.4719H18.7594C17.0312 27.4719 15.625 25.8531 15.625 23.8719V19.2188C15.625 17.2344 17.0312 15.625 18.7594 15.625H24.6062C26.3406 15.625 27.7438 17.2375 27.7438 19.2188V23.8719V23.8719Z" fill="black"/>
<path fill-rule="evenodd" clip-rule="evenodd" d="M12.1187 23.8719C12.1187 25.8562 10.7156 27.4719 8.98125 27.4719H3.13438C1.40625 27.4719 0 25.8531 0 23.8719V19.2188C0 17.2344 1.40625 15.625 3.13438 15.625H8.98125C10.7156 15.625 12.1187 17.2375 12.1187 19.2188V23.8719V23.8719Z" fill="black"/>
<path fill-rule="evenodd" clip-rule="evenodd" d="M43.3688 39.4969C43.3688 41.4813 41.9656 43.0969 40.2312 43.0969H34.3844C32.6563 43.0969 31.25 41.4781 31.25 39.4969V34.8437C31.25 32.8594 32.6563 31.25 34.3844 31.25H40.2312C41.9656 31.25 43.3688 32.8625 43.3688 34.8437V39.4969V39.4969Z" fill="black"/>
<path fill-rule="evenodd" clip-rule="evenodd" d="M27.7438 39.4969C27.7438 41.4813 26.3406 43.0969 24.6062 43.0969H18.7594C17.0312 43.0969 15.625 41.4781 15.625 39.4969V34.8437C15.625 32.8594 17.0312 31.25 18.7594 31.25H24.6062C26.3406 31.25 27.7438 32.8625 27.7438 34.8437V39.4969V39.4969Z" fill="black"/>
<path fill-rule="evenodd" clip-rule="evenodd" d="M12.1187 39.4969C12.1187 41.4813 10.7156 43.0969 8.98125 43.0969H3.13438C1.40625 43.0969 0 41.4781 0 39.4969V34.8437C0 32.8594 1.40625 31.25 3.13438 31.25H8.98125C10.7156 31.25 12.1187 32.8625 12.1187 34.8437V39.4969V39.4969Z" fill="black"/>
</svg>
