<svg width="60" height="50" viewBox="0 0 60 50" fill="none" xmlns="http://www.w3.org/2000/svg">
<path d="M59.9712 35.6338C59.3392 29.2998 57.9262 23.9908 57.6132 10.2818C57.3902 0.575831 45.6072 -0.171168 42.5442 3.11783C39.0732 -1.13717 29.7822 -1.23617 26.3152 4.05783C23.6222 2.57783 16.4142 2.25883 13.4362 5.93083C13.4362 5.93083 4.60122 4.51983 0.600222 19.2518C-0.836778 24.5408 0.720222 31.5538 1.01022 33.0078C3.03322 43.1548 11.5122 41.1978 13.2192 40.2078C16.1112 47.6478 23.5942 46.3088 26.6042 44.1208C26.7782 48.5348 30.3752 50.6558 32.6692 49.8198C39.3912 47.3688 44.9992 47.0368 49.4332 47.2128C51.5602 47.2958 53.2302 46.2748 54.1742 44.4338C57.4992 42.7008 60.3222 39.1548 59.9712 35.6338ZM44.4462 36.6318C45.4542 30.8338 43.2672 22.2398 44.0462 15.6958C40.8862 20.6218 43.2262 34.5668 41.9002 40.2208C40.8152 44.8408 32.2542 43.3958 29.6062 37.8458C28.6882 29.3588 30.0302 24.4388 27.7172 15.6958C27.9352 26.2658 26.3022 28.2348 27.3922 38.5088C24.8682 41.1008 16.1532 39.2768 15.7132 34.8878C15.1262 29.0298 16.3412 24.4288 14.6142 18.7488C14.6142 24.1178 13.5522 26.9818 14.0732 34.9288C14.0762 34.9778 12.5172 36.1688 10.2042 36.1688C0.733223 36.1688 1.55822 22.1418 3.11722 17.2428C5.37322 10.1448 11.3242 6.00983 14.3982 7.63183C15.9252 4.07083 24.6372 3.75683 26.1382 7.09283C27.4342 0.949833 39.8432 1.44783 43.1432 6.92683C45.3572 2.48683 55.5012 3.81483 55.6072 10.3148C55.8422 24.3738 57.8912 30.9558 57.8102 37.1108C54.3392 41.3918 48.2052 41.0128 44.4462 36.6318Z" fill="black"/>
</svg>
